<svg xmlns="http://www.w3.org/2000/svg" xmlns:xlink="http://www.w3.org/1999/xlink" width="34" height="34" viewBox="0 0 34 34"><defs><style>.a{fill:#fff;}.b{clip-path:url(#a);}</style><clipPath id="a"><rect class="a" width="34" height="34"/></clipPath></defs><g class="b"><g transform="translate(0 5.733)"><path class="a" d="M20.031,26.29c-8.263,0-8.263-12.519,0-12.519C28.2,13.771,28.552,26.29,20.031,26.29Zm0-10.015c-5.008,0-5.008,7.511,0,7.511S25.038,16.275,20.031,16.275Z" transform="translate(-3.031 -8.763)"/><path class="a" d="M20.031,31.3c-6.2,0-12.129-3.291-16.275-9.031a3.81,3.81,0,0,1,0-4.472C7.9,12.055,13.835,8.763,20.031,8.763s12.129,3.291,16.275,9.031a3.81,3.81,0,0,1,0,4.472C32.159,28.006,26.226,31.3,20.031,31.3ZM5.78,20.8c3.728,5.155,8.788,7.995,14.25,7.995s10.522-2.839,14.25-7.995a1.311,1.311,0,0,0,0-1.539c-3.728-5.154-8.788-7.993-14.25-7.993S9.508,14.107,5.78,19.262a1.311,1.311,0,0,0,0,1.539Z" transform="translate(-3.031 -8.763)"/></g></g></svg>