<svg xmlns="http://www.w3.org/2000/svg" width="44" height="44" viewBox="0 0 44 44"><defs><style>.a{fill:#fff;}</style></defs><g transform="translate(-309 -30)"><circle class="a" cx="22" cy="22" r="22" transform="translate(309 30)"/><g transform="translate(322.212 46.832)"><path d="M21.344,12.105H5.232c-.4,0-.732-.446-.732-.99h0c0-.544.33-.99.732-.99H21.344c.4,0,.732.446.732.99h0C22.076,11.66,21.747,12.105,21.344,12.105Z" transform="translate(-4.5 -10.125)"/><path d="M21.344,25.6H5.232c-.4,0-.732-.445-.732-.99h0c0-.545.33-.99.732-.99H21.344c.4,0,.732.445.732.99h0C22.076,25.16,21.747,25.6,21.344,25.6Z" transform="translate(-4.5 -15.268)"/></g></g></svg>