<?xml version="1.0" encoding="UTF-8" standalone="no"?>
<svg version="1.1" xmlns="http://www.w3.org/2000/svg" xmlns:xlink="http://www.w3.org/1999/xlink" preserveAspectRatio="xMidYMid meet" viewBox="-1.0000000000000142 -1 54.000000000000014 54" width="50" height="50"><defs><path d="M0 25C0 38.81 11.19 50 25 50C38.81 50 50 38.81 50 25C50 11.19 38.81 0 25 0C11.19 0 0 11.19 0 25Z" id="cBCP7Sawr"></path><path d="M19.8 22.22C20.09 21.94 21.51 20.51 24.08 17.95C24.08 27.71 24.08 33.13 24.08 34.22C24.08 34.72 24.49 35.13 25 35.13C25.5 35.13 25.91 34.72 25.91 34.22C25.91 33.13 25.91 27.71 25.91 17.95C28.48 20.52 29.91 21.94 30.2 22.23C30.56 22.58 31.13 22.57 31.49 22.22C31.85 21.86 31.84 21.29 31.49 20.93C31.49 20.93 31.49 20.93 31.49 20.93C31.1 20.55 29.15 18.62 25.65 15.14C25.65 15.14 25.65 15.14 25.65 15.14C25.56 15.06 25.47 15 25.36 14.95C25.25 14.9 25.13 14.88 25.01 14.88C24.77 14.88 24.54 14.97 24.37 15.14C23.79 15.72 19.12 20.35 18.53 20.93C18.17 21.28 18.16 21.85 18.5 22.21C18.5 22.21 18.51 22.21 18.51 22.21C18.86 22.57 19.44 22.57 19.8 22.22Z" id="gaN9I1qKG5"></path></defs><g><g><use xlink:href="#cBCP7Sawr" opacity="1" fill="#232431" fill-opacity="1"></use><g><use xlink:href="#cBCP7Sawr" opacity="1" fill-opacity="0" stroke="#000000" stroke-width="1" stroke-opacity="0"></use></g></g><g><use xlink:href="#gaN9I1qKG5" opacity="1" fill="#ffffff" fill-opacity="1"></use><g><use xlink:href="#gaN9I1qKG5" opacity="1" fill-opacity="0" stroke="#000000" stroke-width="1" stroke-opacity="0"></use></g></g></g></svg>