<svg xmlns="http://www.w3.org/2000/svg" xmlns:xlink="http://www.w3.org/1999/xlink" width="24" height="24" viewBox="0 0 24 24"><defs><style>.a{fill:#fff;}.b{clip-path:url(#a);}</style><clipPath id="a"><rect class="a" width="24" height="24" transform="translate(1613.928 219.928)"/></clipPath></defs><g class="b" transform="translate(-1613.928 -219.928)"><g transform="translate(1613.982 219.982)"><path class="a" d="M16.952,0H6.94A6.948,6.948,0,0,0,0,6.94V16.952a6.948,6.948,0,0,0,6.94,6.94H16.952a6.948,6.948,0,0,0,6.94-6.94V6.94A6.948,6.948,0,0,0,16.952,0Zm5.074,16.952a5.079,5.079,0,0,1-5.074,5.074H6.94a5.079,5.079,0,0,1-5.074-5.074V6.94A5.079,5.079,0,0,1,6.94,1.867H16.952A5.079,5.079,0,0,1,22.026,6.94Z"/><g transform="translate(5.506 5.506)"><path class="a" d="M15.658,9.219a6.44,6.44,0,1,0,6.44,6.44A6.447,6.447,0,0,0,15.658,9.219Zm0,11.013a4.573,4.573,0,1,1,4.573-4.573A4.578,4.578,0,0,1,15.658,20.232Z" transform="translate(-9.219 -9.219)"/></g><g transform="translate(17.546 4.48)"><circle class="a" cx="0.933" cy="0.933" r="0.933"/></g></g></g></svg>