<svg xmlns="http://www.w3.org/2000/svg" xmlns:xlink="http://www.w3.org/1999/xlink" width="24" height="24" viewBox="0 0 24 24"><defs><style>.a{fill:#fff;}.b{clip-path:url(#a);}</style><clipPath id="a"><rect class="a" width="24" height="24" transform="translate(1614 284)"/></clipPath></defs><g class="b" transform="translate(-1614 -284)"><path class="a" d="M23.506,2.249A3.007,3.007,0,0,0,21.39.134C19.512-.38,12-.38,12-.38s-7.512,0-9.39.494A3.068,3.068,0,0,0,.494,2.249,31.682,31.682,0,0,0,0,8.022a31.565,31.565,0,0,0,.494,5.773A3.007,3.007,0,0,0,2.61,15.91c1.9.514,9.39.514,9.39.514s7.512,0,9.39-.494a3.007,3.007,0,0,0,2.116-2.115A31.692,31.692,0,0,0,24,8.042a30.074,30.074,0,0,0-.494-5.792Zm-13.9,9.37v-7.2l6.247,3.6Zm0,0" transform="translate(1614 287.978)"/></g></svg>